<?xml version="1.0" encoding="utf-8"?>
<!-- Generator: Adobe Illustrator 16.0.0, SVG Export Plug-In . SVG Version: 6.00 Build 0)  -->
<!DOCTYPE svg PUBLIC "-//W3C//DTD SVG 1.1//EN" "http://www.w3.org/Graphics/SVG/1.1/DTD/svg11.dtd">
<svg version="1.1" id="svg1306" xmlns:svg="http://www.w3.org/2000/svg"
	 xmlns="http://www.w3.org/2000/svg" xmlns:xlink="http://www.w3.org/1999/xlink" x="0px" y="0px" width="600px" height="371.613px"
	 viewBox="0 242.5 600 371.613" enable-background="new 0 242.5 600 371.613" xml:space="preserve">
<g id="layer1">
	<path id="path2152" fill="none" stroke="#E3E3E3" stroke-width="30" stroke-linecap="round" d="M571.646,399.628l-91.984-16.334
		l-107.458-3.438l-90.265,34.387l-93.703-37.825l-73.931,14.615l-79.948,25.791"/>
	<path id="path2118" fill="none" stroke="#FF0C0C" stroke-width="2" d="M573.366,400.488L480.522,293.89l-110.897,84.247
		l-89.404,32.666l-90.265-34.386l-76.511,17.193l-75.65,24.931"/>
	<path id="path2120" fill="none" stroke="#FF0AEE" stroke-width="2" d="M567.348,401.348l-86.825-14.615L372.204,507.086
		l-91.124-91.125l-91.984-34.386l-75.651,90.265l-73.931-50.721"/>
	<path id="path2122" fill="none" stroke="#3B20FF" stroke-width="2" d="M576.805,398.768l-98.003-16.333l-107.457-2.579
		l-88.546-40.404l-91.983,110.896l-79.089-63.615l-76.51,26.65"/>
	<path id="path2124" fill="none" stroke="#00B000" stroke-width="2" d="M36.076,425.418l77.37,52.439l78.229,8.598l89.405-71.354
		l90.265-33.526l108.317,100.581l94.563-79.09"/>
	<path id="path2126" fill="none" stroke="#FFDA10" stroke-width="2" d="M569.927,393.61l-91.125-15.473l-104.019-2.58
		L281.08,257.783l-92.844,113.476l-73.931,18.053l-83.388,28.37"/>
	<path id="path2183" fill="none" stroke="#00D2CE" stroke-width="2" d="M36.936,409.943l72.212-26.649l80.809,177.95l97.142-143.562
		l85.106-32.667l106.598,4.298l86.826,16.334"/>
	<path id="path2179" fill="none" stroke="#9B9B9B" stroke-width="2" d="M42.953,420.26l69.633-23.21l73.071-12.895l88.545,33.527
		l97.142,184.826l109.178-51.58l91.983-151.299"/>
	<g id="g2344">
		<path id="path1314" fill="#E3E3E3" stroke="#000000" stroke-width="0.625" stroke-dasharray="0.625,0.625" d="M479.232,305.924
			c-6.409,0-11.605-5.196-11.605-11.605c0-6.41,5.196-11.606,11.605-11.606l0,0c6.409,0,11.605,5.196,11.605,11.606
			C490.838,300.729,485.642,305.924,479.232,305.924z"/>
		<path id="path1316" fill="#E3E3E3" stroke="#000000" stroke-width="0.625" stroke-dasharray="0.625,0.625" d="M372.42,390.602
			c-6.41,0-11.606-5.196-11.606-11.606s5.196-11.606,11.606-11.606l0,0c6.408,0,11.605,5.196,11.605,11.606
			S378.828,390.602,372.42,390.602z"/>
		<path id="path1318" fill="#E3E3E3" stroke="#000000" stroke-width="0.625" stroke-dasharray="0.625,0.625" d="M281.295,426.707
			c-6.41,0-11.605-5.195-11.605-11.605s5.196-11.605,11.605-11.605l0,0c6.409,0,11.605,5.195,11.605,11.605
			S287.704,426.707,281.295,426.707z"/>
		<path id="path1320" fill="#E3E3E3" stroke="#000000" stroke-width="0.625" stroke-dasharray="0.625,0.625" d="M191.46,461.953
			c-6.41,0-11.606-5.195-11.606-11.605s5.196-11.605,11.606-11.605l0,0c6.409,0,11.605,5.195,11.605,11.605
			S197.869,461.953,191.46,461.953z"/>
		<path id="path1322" fill="#E3E3E3" stroke="#000000" stroke-width="0.625" stroke-dasharray="0.625,0.625" d="M113.23,403.496
			c-6.409,0-11.605-5.196-11.605-11.605c0-6.41,5.196-11.606,11.605-11.606l0,0c6.41,0,11.605,5.196,11.605,11.606
			C124.836,398.3,119.64,403.496,113.23,403.496z"/>
		<path id="path1324" fill="#E3E3E3" stroke="#000000" stroke-width="0.625" stroke-dasharray="0.625,0.625" d="M188.881,388.882
			c-6.41,0-11.605-5.196-11.605-11.606c0-6.409,5.196-11.605,11.605-11.605l0,0c6.41,0,11.605,5.196,11.605,11.605
			C200.486,383.686,195.291,388.882,188.881,388.882z"/>
		<path id="path1326" fill="#E3E3E3" stroke="#000000" stroke-width="0.625" stroke-dasharray="0.625,0.625" d="M479.232,491.182
			c-6.409,0-11.605-5.195-11.605-11.605c0-6.408,5.196-11.605,11.605-11.605l0,0c6.409,0,11.605,5.197,11.605,11.605
			C490.838,485.986,485.642,491.182,479.232,491.182z"/>
		<path id="path1328" fill="#E3E3E3" stroke="#000000" stroke-width="0.625" stroke-dasharray="0.625,0.625" d="M479.232,560.814
			c-6.409,0-11.605-5.195-11.605-11.605s5.196-11.605,11.605-11.605l0,0c6.409,0,11.605,5.195,11.605,11.605
			S485.642,560.814,479.232,560.814z"/>
		<path id="path1330" fill="#E3E3E3" stroke="#000000" stroke-width="0.625" stroke-dasharray="0.625,0.625" d="M282.155,556.516
			c-6.41,0-11.606-5.195-11.606-11.604c0-6.41,5.196-11.607,11.606-11.607l0,0c6.409,0,11.605,5.197,11.605,11.607
			C293.76,551.32,288.563,556.516,282.155,556.516z"/>
		<path id="path1332" fill="#BCBCBC" stroke="#000000" stroke-dasharray="1,1" d="M572.937,411.232
			c-6.41,0-11.606-5.195-11.606-11.604c0-6.41,5.196-11.605,11.606-11.605l0,0c6.408,0,11.604,5.195,11.604,11.605
			C584.541,406.037,579.345,411.232,572.937,411.232z"/>
		<path id="path1334" fill="#E3E3E3" stroke="#000000" stroke-width="0.625" stroke-dasharray="0.625,0.625" d="M372.42,278.845
			c-6.41,0-11.606-5.196-11.606-11.606c0-6.409,5.196-11.605,11.606-11.605l0,0c6.408,0,11.605,5.196,11.605,11.605
			C384.025,273.649,378.828,278.845,372.42,278.845z"/>
		<path id="path1336" fill="#E3E3E3" stroke="#000000" stroke-width="0.625" stroke-dasharray="0.625,0.625" d="M372.42,614.113
			c-6.41,0-11.606-5.195-11.606-11.605c0-6.408,5.196-11.605,11.606-11.605l0,0c6.408,0,11.605,5.197,11.605,11.605
			C384.025,608.918,378.828,614.113,372.42,614.113z"/>
		<path id="path1338" fill="#BCBCBC" stroke="#000000" stroke-dasharray="1,1" d="M34.787,430.146
			c-6.41,0-11.606-5.197-11.606-11.605c0-6.41,5.196-11.605,11.606-11.605l0,0c6.409,0,11.605,5.195,11.605,11.605
			C46.392,424.949,41.196,430.146,34.787,430.146z"/>
		<path id="path1340" fill="#E3E3E3" stroke="#000000" stroke-width="0.625" stroke-dasharray="0.625,0.625" d="M190.6,572.85
			c-6.409,0-11.605-5.195-11.605-11.605c0-6.408,5.196-11.605,11.605-11.605l0,0c6.41,0,11.605,5.197,11.605,11.605
			C202.206,567.654,197.01,572.85,190.6,572.85z"/>
		<path id="path1356" fill="#E3E3E3" stroke="#000000" stroke-width="0.625" stroke-dasharray="0.625,0.625" d="M479.232,394.041
			c-6.409,0-11.605-5.196-11.605-11.606s5.196-11.606,11.605-11.606l0,0c6.409,0,11.605,5.196,11.605,11.606
			S485.642,394.041,479.232,394.041z"/>
		<path id="path1358" fill="#E3E3E3" stroke="#000000" stroke-width="0.625" stroke-dasharray="0.625,0.625" d="M282.155,271.108
			c-6.41,0-11.606-5.196-11.606-11.605s5.196-11.606,11.606-11.606l0,0c6.409,0,11.605,5.196,11.605,11.606
			S288.563,271.108,282.155,271.108z"/>
		<path id="path1360" fill="#E3E3E3" stroke="#000000" stroke-width="0.625" stroke-dasharray="0.625,0.625" d="M282.155,353.636
			c-6.41,0-11.606-5.196-11.606-11.606c0-6.409,5.196-11.604,11.606-11.604l0,0c6.409,0,11.605,5.196,11.605,11.604
			C293.76,348.44,288.563,353.636,282.155,353.636z"/>
		<path id="path1362" fill="#E3E3E3" stroke="#000000" stroke-width="0.625" stroke-dasharray="0.625,0.625" d="M372.42,518.691
			c-6.41,0-11.606-5.197-11.606-11.605c0-6.41,5.196-11.605,11.606-11.605l0,0c6.408,0,11.605,5.195,11.605,11.605
			C384.025,513.494,378.828,518.691,372.42,518.691z"/>
		<path id="path1364" fill="#E3E3E3" stroke="#000000" stroke-width="0.625" stroke-dasharray="0.625,0.625" d="M190.6,499.779
			c-6.409,0-11.605-5.195-11.605-11.605s5.196-11.605,11.605-11.605l0,0c6.41,0,11.605,5.195,11.605,11.605
			S197.01,499.779,190.6,499.779z"/>
		<path id="path1368" fill="#E3E3E3" stroke="#000000" stroke-width="0.625" stroke-dasharray="0.625,0.625" d="M113.23,485.164
			c-6.409,0-11.605-5.195-11.605-11.605c0-6.408,5.196-11.605,11.605-11.605l0,0c6.41,0,11.605,5.197,11.605,11.605
			C124.836,479.969,119.64,485.164,113.23,485.164z"/>
	</g>
</g>
</svg>
